<?xml version="1.0" standalone="no"?>
<!DOCTYPE svg PUBLIC "-//W3C//DTD SVG 20010904//EN"
 "http://www.w3.org/TR/2001/REC-SVG-20010904/DTD/svg10.dtd">
<svg version="1.0" xmlns="http://www.w3.org/2000/svg"
 width="700.000000pt" height="700.000000pt" viewBox="0 0 700.000000 700.000000"
 preserveAspectRatio="xMidYMid meet">
<metadata>
Created by potrace 1.11, written by Peter Selinger 2001-2013
</metadata>
<g transform="translate(0.000000,700.000000) scale(0.100000,-0.100000)"
fill="#000000" stroke="none">
<path d="M875 5678 c-3 -7 -4 -204 -3 -438 l3 -425 2625 0 2625 0 0 435 0 435
-2623 3 c-2093 2 -2624 0 -2627 -10z"/>
<path d="M2625 3928 c-3 -7 -4 -204 -3 -438 l3 -425 1750 0 1750 0 0 435 0
435 -1748 3 c-1393 2 -1749 0 -1752 -10z"/>
<path d="M880 3500 l0 -430 650 0 650 0 0 430 0 430 -650 0 -650 0 0 -430z"/>
<path d="M4810 1750 l0 -440 658 2 657 3 0 435 0 435 -657 3 -658 2 0 -440z"/>
<path d="M2630 1750 l0 -430 870 0 870 0 0 430 0 430 -870 0 -870 0 0 -430z"/>
</g>
</svg>
